<svg width="480" height="480" viewBox="0 0 480 480" fill="none" xmlns="http://www.w3.org/2000/svg">
<rect width="480" height="480" rx="100" fill="#0156F8"/>
<path d="M99.7807 96.8074C98.342 96.1051 96.7251 95.8526 95.1408 96.0828C93.5565 96.3129 92.0783 97.0151 90.8989 98.0978C89.7196 99.1804 88.8938 100.593 88.5293 102.152C88.1647 103.711 88.2784 105.344 88.8553 106.837L134.332 228.839C137.014 236.041 137.014 243.968 134.332 251.17L88.8713 373.173C88.2973 374.664 88.1851 376.294 88.5495 377.85C88.9138 379.406 89.7378 380.817 90.9143 381.898C92.0909 382.98 93.5656 383.683 95.1468 383.915C96.728 384.148 98.3426 383.899 99.7807 383.202L387.711 247.235C389.081 246.587 390.238 245.564 391.049 244.284C391.859 243.004 392.29 241.52 392.29 240.005C392.29 238.49 391.859 237.006 391.049 235.726C390.238 234.446 389.081 233.422 387.711 232.775L99.7807 96.8074Z" stroke="white" stroke-width="30" stroke-linecap="round" stroke-linejoin="round"/>
<path d="M136.348 240.005H392.286" stroke="white" stroke-width="30" stroke-linecap="round" stroke-linejoin="round"/>
</svg>
